<?xml version="1.0" encoding="UTF-8" standalone="no"?>
<!-- Created with Inkscape (http://www.inkscape.org/) -->

<svg
   width="514.61499mm"
   height="459.06949mm"
   viewBox="0 0 514.61499 459.06949"
   version="1.1"
   id="svg1"
   inkscape:version="1.4.3 (0d15f75, 2025-12-25)"
   sodipodi:docname="dibujo.svg"
   xmlns:inkscape="http://www.inkscape.org/namespaces/inkscape"
   xmlns:sodipodi="http://sodipodi.sourceforge.net/DTD/sodipodi-0.dtd"
   xmlns="http://www.w3.org/2000/svg"
   xmlns:svg="http://www.w3.org/2000/svg">
  <sodipodi:namedview
     id="namedview1"
     pagecolor="#ffffff"
     bordercolor="#000000"
     borderopacity="0.25"
     inkscape:showpageshadow="2"
     inkscape:pageopacity="0.0"
     inkscape:pagecheckerboard="0"
     inkscape:deskcolor="#d1d1d1"
     inkscape:document-units="mm"
     inkscape:zoom="0.2317557"
     inkscape:cx="843.56071"
     inkscape:cy="1018.3137"
     inkscape:window-width="1800"
     inkscape:window-height="1193"
     inkscape:window-x="0"
     inkscape:window-y="30"
     inkscape:window-maximized="0"
     inkscape:current-layer="layer1" />
  <defs
     id="defs1" />
  <g
     inkscape:label="Capa 1"
     inkscape:groupmode="layer"
     id="layer1"
     transform="translate(152.40039,80.961599)">
    <path
       d="m 1.38332,327.81636 c -19.599579,-15.41833 -40.511827,-30.1934 -54.798412,-51.01318 -30.0748,-36.71453 -53.224418,-79.21245 -69.050828,-123.87938 -9.56861,-29.04759 -12.84526,-60.187798 -25.18797,-88.107649 -12.8935,-20.285061 2.22129,-42.443641 24.43817,-48.888385 9.88421,-1.905682 27.274568,-11.2370918 6.28191,-4.559164 -18.82363,13.802124 -20.63685,-12.5437299 -1.3388,-14.2122068 13.17092,-1.7468753 18.01955,-12.5236282 13.51064,-22.2249172 -14.14386,-9.226879 34.284189,-19.350312 9.914374,-33.114242 -25.368894,-27.379104 35.500365,-32.649883 20.480052,-1.549874 -3.590241,23.911486 42.548173,-4.392316 31.833736,23.226003 10.885305,13.265397 40.7510422,3.025371 40.0012327,21.623863 C 13.319966,-13.793236 18.761613,-0.46351241 33.62714,0.56169633 49.059546,7.5290953 77.007541,13.008936 82.250177,30.38723 66.952454,42.494744 31.538528,5.3741467 29.827837,38.894452 34.455348,88.422085 33.275352,139.43929 51.389384,186.6009 c 8.567528,28.55307 29.349112,51.02926 48.106412,73.27227 17.957234,21.77865 42.274784,37.1206 67.066744,50.02817 21.74045,10.25209 45.17954,17.04661 68.87995,21.32033 9.60882,-7.34934 26.57703,-34.67618 41.56116,-23.16168 0.72368,12.96386 -29.74311,27.07958 -1.42926,25.6463 16.64055,-5.02151 28.16912,12.8533 41.8647,-3.27464 12.62012,14.94795 52.44646,-9.54248 43.47086,21.00673 -12.14571,7.83581 -29.85167,3.10176 -42.00943,13.88253 -20.04585,-10.01689 -36.00694,8.95148 -58.20774,6.55933 -24.64521,4.41443 -49.72865,6.19145 -74.71359,6.22764 -41.00031,-3.23443 -82.86501,-4.59937 -121.867167,-18.8759 C 42.134362,352.84754 20.695438,340.33195 1.38332,327.81636 Z m 34.623912,15.01228 c 21.452995,9.26708 42.433591,19.04677 65.949068,22.00379 37.30553,5.18032 75.83127,13.17092 113.26747,5.88992 -16.94208,-7.64886 -34.46511,2.9711 -51.34286,-5.46777 -20.24284,4.3501 -41.96923,-1.11768 -62.55783,-3.81338 -23.398882,-10.42094 -48.659221,-17.58534 -70.572555,-31.12815 -27.3951858,-10.00081 14.157931,12.83119 21.557526,14.68662 17.114955,9.70933 -18.825647,-4.98533 -23.901435,-9.01983 -14.33684,-8.04487 -16.162114,-6.36232 -1.41519,1.80115 2.969085,1.73683 5.901986,3.56411 9.015806,5.04765 z M -4.8201979,313.97605 c 20.7956559,7.70313 -0.09247,-14.61827 -9.6088191,-13.32772 -4.221448,-7.3232 -16.127941,-11.95071 -7.72927,-15.88068 -15.102732,5.24666 -15.826408,-19.94132 -22.922461,-16.337 -15.985215,-5.04765 -6.2196,-22.92649 -25.26637,-33.9123 -1.736824,-11.57079 -18.916106,-21.59974 -24.383886,-39.04437 -2.418286,-8.93741 -19.414636,-34.5817 -8.977616,-10.71444 8.885146,22.97674 24.514554,42.6708 37.528674,62.32264 10.095291,18.71509 22.031937,38.29054 40.421367,49.96385 6.205529,5.95425 12.183903,15.06253 20.9363709,16.93002 z M -64.706459,248.21192 c 0.719656,-3.14196 3.799303,6.79452 0,0 z m 84.796823,74.99101 c 4.599368,-2.06248 -6.625663,-2.60122 0,0 z m 11.277296,4.11691 c -1.167934,-5.68086 -5.152176,3.18016 0,0 z m 14.131799,5.88993 c 6.716122,-6.40655 -10.3727,-4.04053 0,0 z m 24.213018,13.49456 c 4.086763,-6.03265 -13.080457,-2.27154 0,0 z M 23.220266,314.29366 c 10.433007,-6.75834 -13.5005918,-0.0945 0,0 z m 10.593824,5.28284 c -0.303543,-3.56411 -3.773171,1.60214 0,0 z m 52.959066,33.05796 c 8.517274,5.37732 49.728654,11.77784 23.925554,2.20721 -4.32799,0.90862 -47.849101,-12.31658 -23.925554,-2.20721 z M 2.7000097,287.14774 c -0.8282079,-3.57215 -13.2272027,-3.9561 0,0 z m 24.6452133,14.38308 c 6.426652,-4.48278 -13.315652,-3.45757 0,0 z m 20.74138,12.71057 c 9.214818,-3.46962 -14.929853,-3.48369 0,0 z M -7.3430155,276.22424 c 9.9907596,7.66093 40.3047745,0.98501 15.2997327,-4.57323 -11.3697659,-6.0608 -37.0019942,-10.21189 -19.5292212,3.65457 z m 69.4850295,42.40545 c 4.165162,-7.086 -17.458702,-4.05058 0,0 z M 41.028745,301.85446 c 24.42409,6.90307 -20.544379,-15.45854 -6.03064,-2.54895 l 3.222372,1.45942 z m 42.331069,24.4643 c 23.133536,0.22112 -20.902197,-3.19222 0,0 z m -99.600033,-63.47852 c -0.908616,-4.30989 -5.704985,0.35782 0,0 z m 138.730839,85.43004 c 0.61714,-7.77952 -7.54634,5.79746 0,0 z M 23.246399,287.01507 c -1.407149,-4.10084 -7.228727,-0.17087 0,0 z M -14.047077,260.1345 c 13.27946889,-0.80007 -18.192429,-5.84972 0,0 z m -44.180465,-28.55307 c -1.654406,-6.37238 -14.445392,-11.44616 0,0 z m 115.97925,73.60194 c -2.432358,-2.7761 -1.145821,0.60307 0,0 z m 72.176702,44.29907 c -0.22112,-4.24758 -3.92996,1.60013 0,0 z m -78.565159,-50.8986 c 1.302618,-5.46778 -11.329562,-1.65842 0,0 z M -2.4139727,264.49867 c 9.8862285,-1.05335 -15.8404803,-6.67793 0,0 z m 90.9661677,56.52518 c 15.404265,-6.10099 -15.012272,-2.9731 0,0 z M 41.241827,288.9107 c 17.744152,2.2836 -21.12332,-12.08138 -3.903834,-1.29056 z m 61.673343,37.92066 c 16.57823,-9.89628 11.11045,23.20188 28.12087,2.80023 16.77121,-12.25024 -14.48761,15.14293 6.17739,2.18309 14.95799,-10.00483 37.04018,4.7441 50.98905,9.54248 10.02695,-0.48647 19.78251,8.67608 30.07279,3.09975 19.79658,-5.33712 -38.72273,-7.91019 -23.38481,-17.36422 -18.11202,5.2748 -31.492,-6.28192 -40.40528,-17.88889 -20.32326,-4.69385 -43.8126,-15.0766 -53.96016,-33.07203 -4.141034,-6.74225 5.97034,0.96088 -3.574154,-10.08122 -12.238178,-10.8853 -18.349226,-23.25615 -26.566978,-36.4914 -9.819891,-5.23258 -10.975764,-20.65092 -11.962779,-0.51059 0.08041,-12.71259 -11.856237,-21.27007 -14.775067,-17.72003 -0.05226,-12.24019 12.778926,-6.101 3.799303,-15.15701 -1.929804,-12.68645 -8.294139,-25.90763 -10.201832,-40.23643 -2.967074,-6.90106 -0.422144,-21.68819 -10.145546,-6.06079 -3.537975,16.52395 -1.169944,-20.29511 4.33804,-8.16146 7.228727,-12.38292 -2.605236,-10.92551 -2.999238,-9.21482 4.70792,-10.44909 2.985167,-25.27843 -1.234271,-19.62571 C 29.713255,101.79 31.172669,72.097143 23.457471,77.367922 28.135237,65.775023 32.330552,24.338498 12.005287,40.142794 c -8.2278031,0.116593 -22.488256,2.985167 -29.218449,6.336192 21.12332,11.647176 -2.130826,4.205366 -10.740569,2.35195 -1.117679,10.778763 -9.634952,6.125119 -20.283052,6.22965 17.010424,2.102683 -8.282078,17.388345 -18.019551,11.450175 -12.672384,6.046721 10.923499,21.163524 0.249267,25.84129 1.316689,7.033736 -19.402578,-2.54694 -17.784356,13.725739 -12.292454,-5.18233 -1.682549,19.29603 4.468703,11.01597 20.914259,5.66478 14.722802,18.56029 15.247468,30.82259 -3.405302,7.13626 -16.825485,-16.78528 -2.985167,-15.67966 -10.923499,-17.73611 -12.077361,-6.4166 -21.149453,1.82528 -2.102683,0.59301 23.135544,11.72356 7.297074,17.21948 13.932788,2.15696 14.340861,14.35493 17.181292,22.07214 8.372538,8.72433 6.647775,-9.63897 16.680749,0.85434 -6.352274,-9.34749 -33.600713,-26.33379 -11.659236,-20.88611 -0.120613,-9.39976 -3.972182,-16.9863 2.758012,-16.80337 6.665867,-12.05324 -6.97946,29.73507 8.032812,14.4092 4.15109,-1.81321 5.192381,-12.06731 12.658313,0.97295 10.84309,10.67423 3.917905,18.39948 -11.383838,8.6218 2.73389,9.29322 20.465981,12.60404 17.127017,27.13185 3.533955,12.77691 8.479079,8.06899 12.788976,7.33326 3.377158,12.40904 5.300932,3.2867 5.457729,-2.62936 15.4706007,3.31685 11.84216588,12.46332 16.6908001,18.85178 10.6601609,4.80843 -15.2595284,-32.6137 3.0394424,-11.25318 19.2538225,17.39036 7.2287265,24.64522 -10.0550864,21.86107 10.9355598,-0.88449 14.4554429,14.78914 28.1429849,14.23633 12.473373,5.94018 20.926319,28.73399 -0.578942,19.24176 -7.45387,-6.73019 -33.8640511,-15.02433 -12.290443,-2.23334 19.901111,9.22687 35.727519,14.73486 54.931086,26.31771 13.737797,9.80582 19.675967,21.0409 24.882419,23.2662 -11.552695,5.51804 -34.804832,-4.40437 -17.53509,-7.43979 -10.778763,-1.95996 -22.896328,-7.41367 -12.579914,6.00651 8.780611,7.33527 31.087947,6.55732 35.098322,7.38553 -3.391229,7.46794 -9.212807,8.06095 0.130664,8.63788 -10.424965,5.56025 3.353039,6.42866 4.311909,9.59475 z M 81.594847,266.61542 c -6.348253,-6.63772 -7.990597,-19.05883 -1.12974,-8.25795 3.523904,1.42122 11.267245,20.3132 1.12974,8.25795 z m 69.446833,44.11413 c 3.9561,-0.26133 0.11659,3.00728 0,0 z m -79.459705,-60.3868 c -0.253287,-10.03097 2.283602,7.73932 0,0 z m -6.903072,-9.28116 c -7.990597,-15.41833 10.055086,4.36418 0,0 z m -83.655022,-57.73131 c 4.693848,-1.25236 2.313755,8.01472 0,0 z m 66.580271,36.08132 c 2.878625,-10.81897 3.379169,9.07209 0,0 z M 0.57119388,186.70543 c -3.31082118,-5.96631 6.92920492,5.60246 0,0 z M 40.926224,199.64115 c -7.558402,-16.93002 5.363249,-9.25502 1.682548,2.77409 z m -69.601622,-46.41582 c -3.377158,-5.55824 -8.965551,-21.85906 -7.1644,-26.83836 1.616212,8.1092 17.233558,34.88524 7.648861,11.09437 -10.579752,-19.94132 12.660323,6.46484 15.052477,11.44816 1.117678,4.94312 -6.533193,-1.35287 -1.354884,10.25209 -9.450012,-13.21112 -5.574321,7.29707 -14.182054,-5.95626 z m -21.505261,-14.82532 c 0.880474,-12.92166 4.916982,8.859 0,0 z m 9.675156,3.33695 c 4.61344,-9.74953 7.81973,13.59306 0,0 z m -23.280279,-18.00548 c -8.006679,-7.96849 -13.804134,-15.30174 0.379931,-4.94512 5.455718,0.21107 -12.143698,-16.67874 1.316689,-5.36325 14.14185,2.5791 6.97745,23.20389 -1.69662,10.30837 z m 12.224107,-0.3156 c 4.655654,-4.61344 2.472562,4.53504 0,0 z m 7.532269,2.40421 c -7.059869,-13.21112 8.557477,5.54819 0,0 z m -14.957997,-14.28658 c -23.278269,-20.733343 29.246592,10.82901 3.799303,3.83548 z m 66.7089252,38.74887 c -10.0812192,-6.03466 -2.6816244,-42.52204 0.763881,-17.57329 9.7937588,-3.1701 -0.5427575,12.89552 6.7543168,12.73671 -1.141801,10.13148 -4.414429,13.778 -7.5181978,4.83658 z M 32.394879,164.8725 c 0.985005,-10.99988 2.07655,7.52222 0,0 z m -4.283764,-4.24557 c 1.103607,-4.69184 0.104531,5.53412 0,0 z M -54.428239,104.7229 c -14.955986,-20.638855 43.47086,20.87205 9.584696,5.23259 -3.537975,-0.93274 -7.807668,-1.26242 -9.584696,-5.23259 z m 47.5194296,25.18797 c -1.4172003,-17.37829 3.1560347,2.87461 0,0 z m 36.0692554,23.14359 c 2.786156,-9.89628 0.213083,6.54927 0,0 z M -52.126545,96.848898 c 8.887152,-1.905682 36.831126,15.603272 11.172765,4.995382 -2.850483,-3.156037 -8.937408,-1.72275 -11.172765,-4.997392 z M 24.20326,134.89017 c 0.950831,-17.77028 5.315004,-10.60789 0.04021,2.55096 l -0.04021,-2.55297 z M -45.514954,90.659452 c 3.626425,-5.312994 -9.624901,-24.016017 1.903672,-6.706071 4.985329,3.956099 14.419259,6.625662 6.086926,8.294139 13.104579,11.55672 -3.192219,3.129902 -7.990598,-1.588068 z M 20.43009,129.34399 c 2.500705,-20.24284 2.211235,11.85624 0,0 z M -53.087427,71.966479 c 2.774094,-1.186025 1.471476,3.690752 0,0 z m 17.207425,10.240026 c 4.426489,-9.295225 8.161466,10.356619 0,0 z m 48.516496,26.985105 c -0.04021,-3.5621 0.918667,5.19238 0,0 z m -2.814299,-6.21558 c -6.7301938,-16.616424 6.271865,8.79267 0,0 z M 5.6932171,92.076652 c -1.1257194,-6.862868 3.8395072,8.623818 0,0 z m 6.7301939,-10.93556 c -4.6255007,-8.139353 5.839669,-35.886326 7.009613,-18.678901 -4.878787,13.408122 -1.407149,20.902197 1.982071,2.91883 6.285936,-14.14386 -1.352874,27.933923 -8.991684,15.760071 z m 6.915133,-41.261636 c 2.014234,-2.472562 0.448278,2.981146 0,0 z M 7.7878593,267.45569 c -2.7359002,-2.39215 0.3517873,1.51369 0,0 z m 23.7908727,12.02912 c 13.235244,3.4053 13.170917,-2.05243 1.206128,-3.68271 -6.426651,-5.97838 -26.7358351,-12.32864 -8.555467,-0.73574 1.198087,3.0515 4.99739,2.97109 7.349339,4.41845 z M -15.39995,248.27625 c 7.2809922,5.44567 27.457502,15.40627 10.3827512,2.08057 5.75725059,-6.69401 -11.0159682,-10.2541 -5.4537082,-14.73486 -14.157932,-8.66603 -11.176786,-7.89009 -1.248343,-7.61268 -17.010424,-7.61268 2.4564809,-7.03374 1.537813,-10.93556 -6.559325,-1.29056 -32.587566,-11.57079 -17.273762,0.84027 -15.56307,-7.92828 -3.708843,2.95702 -8.412742,1.81321 -15.920888,-4.33804 14.172003,12.12159 -2.524828,8.03281 9.124358,7.22873 24.568826,18.53417 3.851569,7.64886 -2.719819,3.92997 14.829343,9.88623 19.13924,12.86738 z m 24.8804088,14.30267 c 30.2476782,9.74149 -14.8414041,-11.92258 0,0 z M 136.85561,339.73894 c 0.394,-6.00652 -4.12898,5.12604 0,0 z m 13.09252,5.50798 c 6.97946,-6.75431 0.28947,10.77877 11.56676,-1.6544 0.1166,-8.90123 -0.34173,-14.15592 -12.95984,-3.34098 -3.48571,1.93383 -5.03358,10.12143 1.39308,4.99739 z M -57.871734,214.73584 c -2.144898,-8.42681 -15.026344,-8.39063 0,0 z m 13.970981,9.15853 c -5.19238,-8.60773 -18.522104,-7.79359 0,0 z m 79.540116,47.9657 c 7.771484,6.90307 35.663193,5.06172 9.4279,0.85635 -3.879711,-5.74519 -24.661295,-4.36417 -9.4279,-0.85635 z m 109.325447,67.52909 c 11.94871,-10.03096 -11.57883,4.46871 0,0 z m 24.85829,17.07274 c 0.0764,-3.22036 -5.15217,1.40715 0,0 z m 0.0402,-4.50891 c 13.23524,-14.01118 -12.81712,0.82821 0,0 z M -92.260452,185.94557 c -11.277298,-16.08975 -7.005593,-23.32049 -17.888888,-36.46527 -2.0665,-10.05509 -18.66483,-32.84889 -8.58361,-8.70221 9.22688,14.1318 11.96077,36.00292 26.474509,45.16748 z M 165.7082,347.49635 c 24.35976,-15.73595 -9.98875,-6.84879 0,0 z m 18.58844,7.28099 c 12.19797,-10.46517 -7.71721,-2.18309 0,0 z M -62.014784,196.94545 c 3.48571,-5.19238 -9.015806,-0.6694 0,0 z M 180.41693,349.8081 c 11.80397,-7.60866 -2.71982,-6.44073 -2.14088,0.69553 z M 20.206956,248.82906 c -0.406063,-5.15218 -6.241712,0.4342 0,0 z m 9.89829,5.69292 c -3.154024,-6.36232 -4.836573,0.99908 0,0 z M 199.35917,354.95022 c 15.12886,-10.91345 -9.16054,-2.09263 -3.1681,2.07655 z M 193.56372,352.15 c 12.32864,-10.32044 -13.00206,4.57323 0,0 z m 29.59838,19.70209 c 8.27203,-5.53411 -10.05307,-1.78707 0,0 z M -54.428239,193.20043 c 11.080295,2.48261 44.309119,27.3007 24.711551,1.72275 -10.041015,-2.9711 -4.020427,-27.51379 -14.260453,-23.17575 6.874929,11.48837 5.648699,16.36314 -8.784632,9.13642 -18.124082,-8.86102 -10.18575,4.37825 -6.633703,8.03281 -4.840593,1.10361 6.386447,4.19331 4.965227,4.28176 z M -104.9449,153.30775 c 1.98408,-8.21776 -18.2849,-45.16748 -9.56861,-18.52211 3.13995,5.58638 2.8143,16.16614 9.56861,18.52211 z m 92.723097,57.16443 c -5.717046,-4.77024 -0.275399,-0.68347 0,0 z m 14.0513903,3.27665 c 0,-8.70423 -15.5349273,-3.53798 0,0 z M 123.68469,290.55304 c -2.32582,-5.9442 -9.18667,-0.13267 0,0 z m 5.84972,4.2697 c -0.87042,-3.3249 -3.38118,0.64527 0,0 z m 48.29336,30.4306 c 4.64159,-3.42942 -5.79745,-0.44425 0,0 z M -79.718732,159.74847 c 13.28751,-5.14213 -14.23834,-3.66864 0,0 z M 112.95618,281.12514 c -0.15478,-8.59567 -8.47707,2.1449 0,0 z M -84.965388,147.50828 c 8.531345,-2.8746 -7.900138,-1.8896 0,0 z m 24.765827,12.00097 c -0.146746,-2.82435 -2.615288,1.07949 0,0 z M 241.93548,344.78658 c 10.97577,-2.22128 35.99086,5.5884 40.02536,-2.90274 -13.32772,-0.32968 -46.09821,-9.41383 -47.6501,2.15293 l 2.91883,0.46235 4.70792,0.28746 z M -52.327566,161.49534 c 0.201021,-8.71628 -6.794521,-0.32766 0,0 z M -117.44239,116.3158 c -2.95703,-16.604358 -11.25318,-2.51276 0,0 z m 15.52286,3.90384 c 0.19901,-5.33712 -14.2122,-4.79838 0,0 z m 8.873085,4.36417 c -2.563022,-2.07856 -1.998152,2.61328 0,0 z m 55.851763,35.81999 c 2.63137,-2.4203 -6.22965,-1.78708 0,0 z m -61.753749,-45.65194 c -1.509669,-12.53971 -17.995429,-1.87955 0,0 z M -130.80026,94.086865 c -0.44828,-5.783383 -3.10377,2.181082 0,0 z m 4.7441,-3.572148 c -0.77393,-6.864878 -4.0747,0.864391 0,0 z m 26.162929,15.613323 c 11.068234,-4.33804 -20.154399,-8.991681 -2.261489,-0.81413 z M 250.33817,322.46719 c 7.084,-6.49299 -8.99168,-2.01022 0,0 z m 42.31298,21.92539 c 2.84043,-8.3846 -7.15234,1.10562 0,0 z M -97.219648,92.418388 c 1.171955,-8.121261 -8.778602,1.616212 0,0 z M -134.45483,67.471643 c -1.99815,-11.462236 -1.72275,-31.588491 17.40443,-24.79196 -25.52971,5.073778 17.679824,31.741267 12.22411,10.684283 10.738555,0.528687 21.006724,-6.346243 15.366065,4.074703 21.163525,-2.325817 35.822,-20.675043 56.259837,-18.09795 C -17.28352,37.225975 0.12090612,35.633886 17.276066,29.219296 31.379721,28.206148 44.956701,13.023008 37.231452,4.019263 17.999742,2.3909903 -2.1405837,4.7952053 -23.394568,9.0287143 -46.948236,13.917553 -68.346955,23.22283 -92.115716,27.221144 c -23.175744,3.11583 4.653643,8.569539 -1.986091,9.791748 -12.081383,4.193305 14.42127,7.019665 -1.563946,11.448164 -9.870147,-1.877539 -20.150377,-5.268768 -15.930937,-15.679663 -22.18874,2.890687 -41.69584,12.091433 -24.15874,34.674168 l 1.30261,0.01206 z m 53.487756,-27.238389 c 5.192381,-19.163363 27.865575,15.776153 8.517273,2.55096 -2.301694,-1.736824 -6.115068,-3.143973 -8.517273,-2.55096 z m 1.009127,-9.295226 c 7.508146,-5.584372 3.984243,3.143973 0,0 z m 9.530421,0.160817 c 0.687493,-8.820815 21.836946,4.665705 3.48571,3.168096 l -3.48571,-3.170106 z m 13.040253,-5.244646 c 4.772246,-5.576332 1.383027,4.941104 0,0 z m 3.340974,-2.233347 c 7.938332,-9.530421 44.9141938,-6.088936 17.848683,-0.936759 -7.256869,-5.46778 -12.815109,3.220361 -17.848683,0.936759 z m 48.2652192,-7.441809 c -1.1940667,-26.0423123 23.9898838,9.24095 0,0 z M 7.9185231,16.098634 C 12.923954,2.981993 27.357285,10.829865 10.24434,13.457214 c 0.365859,1.407149 -0.5126046,6.78447 -2.3258169,2.64142 z M -102.61707,85.688195 c 14.955986,-9.162552 -15.88068,-7.950393 0,0 z m 11.066224,3.063565 c 5.246656,-5.572311 -11.409974,-2.26149 0,0 z M -124.14846,65.630287 c 8.5434,-6.573397 -10.12143,-2.496684 0,0 z M 317.62403,342.00043 c 0.24927,-7.62474 -6.53319,3.42942 0,0 z m -44.89007,-30.64168 c 1.27447,-8.76453 -5.76931,0.76388 0,0 z m 57.23278,33.60071 c 11.95072,0.0402 36.21198,-3.72291 10.21188,-3.70884 -4.08676,0.63322 -23.7768,0.50255 -10.21188,3.70884 z M -81.821415,83.372429 c 9.675157,-0.65734 15.128865,-10.662171 -1.881559,-10.095291 -26.353896,-2.719818 23.252136,9.031888 -3.377158,5.666791 -3.574159,2.366021 5.045635,5.08584 5.258717,4.4285 z m 8.517274,4.313918 c -1.013148,-6.205529 -2.999238,3.296749 0,0 z m 10.107352,-26.948919 c 4.193304,-5.206452 -5.809516,-1.393077 0,0 z M -95.376282,6.9642254 c 17.273762,-5.8617817 40.881706,-12.4613117 49.03312,2.894707 -8.29615,-9.97668814 -3.351025,-19.8106511 4.482776,-5.2064522 11.080295,14.7630058 16.624463,-6.7161223 9.421869,-11.6733081 8.217751,10.1998218 17.549161,15.0263437 5.493913,0.6472887 13.10659,-15.7620818 -26.223232,2.0624787 -35.160639,1.8775391 -4.297836,1.9298047 -44.403597,10.2259546 -33.269029,11.4602255 z m 10.121423,-19.3724244 c 9.848035,-7.425728 34.059043,4.4284994 18.522105,-7.389544 -1.523742,-1.338802 -34.016826,8.965551 -18.522105,7.389544 z m 35.900398,1.483537 c 11.514501,0.289471 -4.967237,-15.484672 8.754478,-8.334344 -2.247418,-7.35939 -15.983205,-8.740407 -22.699327,-11.683359 -3.799303,6.730194 7.725249,20.110173 13.944849,20.017703 z m -29.60441,-32.587566 c 3.984243,-5.401443 -6.991521,2.747961 0,0 z m 14.674556,3.507822 c 18.57035,-2.456481 -4.736062,-7.990598 -3.751057,-0.194991 l 3.749047,0.194991 z m -27.399206,-21.424852 c -13.080459,-17.074751 24.594959,2.866564 11.303429,-15.012273 -11.184826,-8.897203 -21.923388,10.030964 -11.303429,15.012273 z M 76.108975,28.943896 C 82.107451,18.31992 51.35923,14.615097 72.074477,25.180777 c 1.905683,0.633218 1.475497,4.496847 4.034498,3.763119 z"
       id="path1"
       style="stroke-width:2.01021" />
  </g>
</svg>
