<?xml version="1.0" encoding="UTF-8" standalone="no"?>
<svg
   width="49.653999"
   height="51.116413"
   viewBox="0 0 49.653999 51.116413"
   version="1.1"
   id="svg1"
   sodipodi:docname="Laravel.svg"
   inkscape:version="1.3.2 (091e20e, 2023-11-25)"
   xmlns:inkscape="http://www.inkscape.org/namespaces/inkscape"
   xmlns:sodipodi="http://sodipodi.sourceforge.net/DTD/sodipodi-0.dtd"
   xmlns="http://www.w3.org/2000/svg"
   xmlns:svg="http://www.w3.org/2000/svg"
   xmlns:rdf="http://www.w3.org/1999/02/22-rdf-syntax-ns#"
   xmlns:cc="http://creativecommons.org/ns#"
   xmlns:dc="http://purl.org/dc/elements/1.1/">
  <defs
     id="defs1" />
  <sodipodi:namedview
     id="namedview1"
     pagecolor="#ffffff"
     bordercolor="#000000"
     borderopacity="0.25"
     inkscape:showpageshadow="2"
     inkscape:pageopacity="0.0"
     inkscape:pagecheckerboard="0"
     inkscape:deskcolor="#d1d1d1"
     inkscape:zoom="19.62"
     inkscape:cx="25"
     inkscape:cy="26.019368"
     inkscape:window-width="1600"
     inkscape:window-height="1212"
     inkscape:window-x="0"
     inkscape:window-y="25"
     inkscape:window-maximized="0"
     inkscape:current-layer="svg1" />
  <title
     id="title1">Logomark</title>
  <path
     d="m 49.626,11.563871 a 0.809,0.809 0 0 1 0.028,0.209 v 10.972 a 0.8,0.8 0 0 1 -0.402,0.694 l -9.209,5.302 v 10.509 c 0,0.286 -0.152,0.55 -0.4,0.694 l -19.223,11.066 c -0.044,0.025 -0.092,0.041 -0.14,0.058 -0.018,0.006 -0.035,0.017 -0.054,0.022 a 0.805,0.805 0 0 1 -0.41,0 c -0.022,-0.006 -0.042,-0.018 -0.063,-0.026 -0.044,-0.016 -0.09,-0.03 -0.132,-0.054 L 0.402,39.943871 A 0.801,0.801 0 0 1 0,39.249871 V 6.3338712 c 0,-0.072 0.01,-0.142 0.028,-0.21 0.006,-0.023 0.02,-0.044 0.028,-0.067 0.015,-0.042 0.029,-0.085 0.051,-0.124 0.015,-0.026 0.037,-0.047 0.055,-0.071 0.023,-0.032 0.044,-0.065 0.071,-0.093 0.023,-0.023 0.053,-0.04 0.079,-0.06 0.029,-0.024 0.055,-0.05 0.088,-0.069 h 0.001 l 9.61,-5.53299997 a 0.802,0.802 0 0 1 0.8,0 l 9.61,5.53299997 h 0.002 c 0.032,0.02 0.059,0.045 0.088,0.068 0.026,0.02 0.055,0.038 0.078,0.06 0.028,0.029 0.048,0.062 0.072,0.094 0.017,0.024 0.04,0.045 0.054,0.071 0.023,0.04 0.036,0.082 0.052,0.124 0.008,0.023 0.022,0.044 0.028,0.068 a 0.809,0.809 0 0 1 0.028,0.209 V 26.892871 l 8.008,-4.611 v -10.51 c 0,-0.07 0.01,-0.141 0.028,-0.208 0.007,-0.024 0.02,-0.045 0.028,-0.068 0.016,-0.042 0.03,-0.085 0.052,-0.124 0.015,-0.026 0.037,-0.047 0.054,-0.071 0.024,-0.032 0.044,-0.065 0.072,-0.093 0.023,-0.023 0.052,-0.04 0.078,-0.06 0.03,-0.024 0.056,-0.05 0.088,-0.069 h 10e-4 l 9.611,-5.5329998 a 0.801,0.801 0 0 1 0.8,0 l 9.61,5.5329998 c 0.034,0.02 0.06,0.045 0.09,0.068 0.025,0.02 0.054,0.038 0.077,0.06 0.028,0.029 0.048,0.062 0.072,0.094 0.018,0.024 0.04,0.045 0.054,0.071 0.023,0.039 0.036,0.082 0.052,0.124 0.009,0.023 0.022,0.044 0.028,0.068 z m -1.574,10.718 v -9.124 l -3.363,1.936 -4.646,2.675 v 9.124 l 8.01,-4.611 z m -9.61,16.505 v -9.13 l -4.57,2.61 -13.05,7.448 v 9.216 z M 1.602,7.7188712 V 38.786871 l 17.618,10.143 v -9.214 l -9.204,-5.209 -0.003,-0.002 -0.004,-0.002 c -0.031,-0.018 -0.057,-0.044 -0.086,-0.066 -0.025,-0.02 -0.054,-0.036 -0.076,-0.058 l -0.002,-0.003 c -0.026,-0.025 -0.044,-0.056 -0.066,-0.084 -0.02,-0.027 -0.044,-0.05 -0.06,-0.078 l -10e-4,-0.003 c -0.018,-0.03 -0.029,-0.066 -0.042,-0.1 -0.013,-0.03 -0.03,-0.058 -0.038,-0.09 v -10e-4 c -0.01,-0.038 -0.012,-0.078 -0.016,-0.117 -0.004,-0.03 -0.012,-0.06 -0.012,-0.09 v -0.002 -21.481 l -4.645,-2.6759998 -3.363,-1.934 z m 8.81,-5.994 -8.007,4.609 8.005,4.6089998 8.006,-4.6099998 -8.006,-4.608 z m 4.164,28.7639998 4.645,-2.674 V 7.7188712 l -3.363,1.936 -4.646,2.6749998 v 20.096 z m 24.667,-23.3249998 -8.006,4.6089998 8.006,4.609 8.005,-4.61 z m -0.801,10.6049998 -4.646,-2.675 -3.363,-1.936 v 9.124 l 4.645,2.674 3.364,1.937 z m -18.422,20.561 11.743,-6.704 5.87,-3.35 -8,-4.606 -9.211,5.303 -8.395,4.833 z"
     fill="#ff2d20"
     fill-rule="evenodd"
     id="path1" />
  <metadata
     id="metadata1">
    <rdf:RDF>
      <cc:Work
         rdf:about="">
        <dc:title>Logomark</dc:title>
      </cc:Work>
    </rdf:RDF>
  </metadata>
</svg>
